<svg version="1.1" id="Layer_1" xmlns="http://www.w3.org/2000/svg" xmlns:xlink="http://www.w3.org/1999/xlink" x="0px" y="0px"
	 width="100%" viewBox="0 0 708 264" enable-background="new 0 0 708 264" xml:space="preserve">
<path fill="#FEFEFE" opacity="1.000000" stroke="none" 
	d="
M1.000001,209.000000 
	C1.000000,139.721146 1.000000,70.442284 1.000000,1.000000 
	C117.020844,1.000000 233.041763,1.000000 349.535004,1.354449 
	C340.901123,7.562994 339.260529,17.444580 346.985718,22.954399 
	C350.177185,25.230627 351.371979,27.480637 351.088562,31.420969 
	C351.496979,35.328434 350.341949,37.240295 346.823853,38.986862 
	C339.158722,42.792259 331.963226,47.543686 324.249756,51.963890 
	C317.834625,55.646122 311.745544,59.272976 305.323853,62.970058 
	C303.391724,63.919525 301.794312,64.802544 300.192413,65.677330 
	C295.348907,68.322319 292.130127,71.996605 292.328064,78.357986 
	C292.288940,81.573700 292.352448,84.337173 292.333191,87.519272 
	C292.399078,90.655159 292.547699,93.372437 292.680573,96.475441 
	C293.245026,100.886696 295.690399,103.008186 299.633545,103.013992 
	C303.517029,103.019714 306.046509,100.977127 306.916748,96.584442 
	C306.995056,93.125954 306.960968,90.108681 307.000977,86.698105 
	C307.769348,83.551323 308.463684,80.797859 309.481873,77.947662 
	C316.658478,73.635315 323.511261,69.419693 330.691650,65.111740 
	C337.133728,61.425644 343.248199,57.831860 349.741211,54.174103 
	C355.064301,51.841129 359.325653,54.044151 363.813538,56.450157 
	C369.602264,59.863628 375.176422,62.996094 380.957306,66.407242 
	C386.714813,69.830688 392.265625,72.975449 398.006714,76.416641 
	C402.315674,79.877060 402.046661,84.577080 402.406860,89.417770 
	C402.424042,91.908745 402.540405,94.004066 402.651123,96.483086 
	C403.372711,100.784271 405.711914,103.041039 409.703857,103.015800 
	C413.575195,102.991325 416.178894,101.064583 416.953430,96.589401 
	C417.033051,93.776970 417.000793,91.398033 417.039764,88.559052 
	C417.032562,84.067001 416.954132,80.034996 416.897583,75.637299 
	C415.820068,69.839493 412.225983,66.734726 407.027710,64.651489 
	C401.121521,61.166275 395.443787,57.942947 389.508240,54.458176 
	C378.927094,48.256168 368.603699,42.315601 357.893707,36.152573 
	C357.893707,34.632484 357.893707,32.819016 357.947845,30.587519 
	C357.676727,27.241106 358.435913,25.419289 361.441376,23.768078 
	C367.617188,20.375051 369.016632,11.737990 364.680573,6.150525 
	C363.137299,4.161878 360.913269,2.701519 359.000000,1.000000 
	C475.575134,1.000000 592.150269,1.000000 709.000000,1.000000 
	C709.000000,70.020653 709.000000,139.041672 708.604004,208.377014 
	C692.487915,208.773026 676.740173,208.338638 661.060242,209.174179 
	C654.174622,209.541092 649.515869,214.970917 649.104248,222.005096 
	C648.533142,231.763397 648.600403,241.607986 649.193176,251.367126 
	C649.549988,257.241302 653.412537,261.327271 659.125916,263.376801 
	C660.146667,263.742950 661.045105,264.450226 662.000000,265.000000 
	C645.979126,265.000000 629.958191,265.000000 613.607910,264.692108 
	C615.308716,262.035522 617.807922,259.948944 619.291321,257.294647 
	C627.568604,242.483887 635.606689,227.539368 643.703064,212.627792 
	C644.387878,211.366562 644.899475,210.011322 645.819092,207.974228 
	C643.029663,207.974228 640.874023,208.285355 638.843506,207.913345 
	C633.657288,206.963242 631.209229,209.487045 628.997559,213.879166 
	C623.014221,225.761841 616.545471,237.400558 610.233887,249.117020 
	C609.423645,250.621017 608.403625,252.012039 606.947021,254.290359 
	C605.604065,251.996490 604.757446,250.643677 604.000366,249.242447 
	C597.199646,236.656189 590.459717,224.036621 583.562500,211.503571 
	C582.782471,210.086060 581.247925,208.313553 579.879944,208.138519 
	C576.213562,207.669388 572.447571,207.978531 568.107239,207.978531 
	C568.863525,209.723755 569.176697,210.641800 569.636780,211.479095 
	C578.128479,226.933136 586.569275,242.415985 595.208557,257.787262 
	C596.698914,260.438904 599.047729,262.608002 601.000000,265.000000 
	C594.312378,265.000000 587.624695,265.000000 580.392090,264.552185 
	C579.560913,260.749542 579.274719,257.394684 578.749756,253.839783 
	C578.304382,253.661179 578.097839,253.682632 577.443604,253.574921 
	C566.501831,253.427017 556.007202,253.457825 545.513489,253.374344 
	C536.593445,253.303391 534.323242,251.049545 534.227783,242.051025 
	C534.127136,232.556946 533.916199,223.049011 534.316650,213.570908 
	C534.520447,208.747055 532.801025,207.275513 528.381897,207.960464 
	C527.731140,208.061340 527.040100,208.054199 526.386963,207.961487 
	C522.945190,207.472931 521.726929,208.804047 521.807922,212.374466 
	C522.026672,222.031204 522.181519,231.707825 521.804749,241.354813 
	C521.368652,252.519592 524.119568,261.403442 536.000000,265.000000 
	C523.312439,265.000000 510.624878,265.000000 497.633606,264.670776 
	C506.703156,261.971008 510.525909,258.312103 511.306122,248.687347 
	C511.974121,240.446930 511.960175,232.045700 511.168823,223.819382 
	C510.189423,213.638367 504.632751,208.552704 494.447174,208.194473 
	C482.321106,207.767990 470.152863,207.722549 458.031799,208.218460 
	C447.229584,208.660431 441.506409,214.989151 441.019470,225.880859 
	C440.796783,230.861588 441.154480,235.870438 440.880341,240.846237 
	C440.261475,252.079208 442.847046,261.298035 455.000000,265.000000 
	C438.979095,265.000000 422.958221,265.000000 406.514648,264.658508 
	C408.077972,261.910889 410.486755,259.740234 411.979706,257.059479 
	C420.234924,242.236237 428.274261,227.292648 436.362244,212.376541 
	C437.029053,211.146729 437.507141,209.814575 438.317719,207.974197 
	C435.396393,207.974197 433.211304,208.221832 431.103516,207.923355 
	C426.517273,207.273972 423.981201,209.099426 421.878662,213.272110 
	C415.817078,225.301819 409.270386,237.087387 402.889313,248.955429 
	C402.061859,250.494431 401.088135,251.954803 399.637329,254.351776 
	C398.210815,251.997940 397.247406,250.547714 396.421326,249.023071 
	C389.685059,236.590698 383.029297,224.114029 376.185669,211.741196 
	C375.341980,210.215851 373.664856,208.378891 372.153107,208.150909 
	C368.630707,207.619751 364.973602,207.981506 360.828369,207.981506 
	C361.406738,209.516739 361.637115,210.455215 362.086670,211.273254 
	C370.819580,227.164597 379.505646,243.082718 388.410278,258.877533 
	C389.732697,261.223267 392.110474,262.973999 394.000000,265.000000 
	C379.979095,265.000000 365.958221,265.000000 351.549805,264.638885 
	C352.192017,261.455200 354.050690,258.650452 354.111694,255.807098 
	C354.418518,241.504318 354.114349,227.189148 354.349243,212.883652 
	C354.415100,208.873215 353.199127,207.331848 349.265350,207.958221 
	C348.453979,208.087433 347.589874,208.078064 346.775055,207.960037 
	C343.145050,207.434280 341.763855,208.732178 341.909973,212.594559 
	C342.199066,220.237442 341.995209,227.898956 341.995178,235.552780 
	C341.995148,241.284363 341.995178,247.015930 341.995178,252.747513 
	C341.567780,252.922012 341.140411,253.096512 340.713013,253.271011 
	C339.586456,252.029175 338.357117,250.865097 337.349304,249.533386 
	C328.014191,237.198700 318.744720,224.814316 309.394409,212.491241 
	C306.141968,208.204727 292.716919,205.883667 288.341461,208.965317 
	C287.157745,209.798996 286.675568,211.628738 285.648621,213.344421 
	C285.331055,215.507263 285.161285,217.326630 285.153198,219.146729 
	C285.085358,234.431076 285.047119,249.715561 285.000000,265.000000 
	C282.299988,265.000000 279.599976,265.000000 276.365845,264.554077 
	C275.542877,260.783630 275.254059,257.459076 274.741272,253.960831 
	C274.329437,253.807663 274.141602,253.828201 273.500366,253.729355 
	C261.240295,253.566162 249.429138,253.706802 237.628616,253.415756 
	C229.321243,253.210861 227.238815,250.393036 228.315842,241.441269 
	C230.027359,241.441269 231.810837,241.453522 233.594116,241.439301 
	C247.050934,241.331970 260.507721,241.219452 274.275024,241.083664 
	C274.742859,240.699417 274.900208,240.340027 275.199066,239.544159 
	C275.527191,229.186035 275.814880,230.896027 267.187683,230.836380 
	C254.238754,230.746841 241.288742,230.813080 228.417114,230.813080 
	C227.196579,222.874863 229.376709,219.762558 236.572556,219.526474 
	C244.719391,219.259201 252.880920,219.436935 261.036072,219.426743 
	C265.821167,219.420776 270.606293,219.425659 275.963165,219.425659 
	C275.963165,216.103210 276.258911,213.431747 275.825165,210.884491 
	C275.638031,209.785355 273.949921,208.118591 272.930267,208.108841 
	C259.285461,207.978226 245.621338,207.699585 231.997360,208.283127 
	C222.060776,208.708740 216.609665,213.987732 215.851746,223.975204 
	C215.175842,232.881699 215.518921,241.919174 216.124481,250.850571 
	C216.536102,256.921356 220.212219,261.234741 226.134644,263.369446 
	C227.153305,263.736603 228.048019,264.447754 229.000000,265.000000 
	C218.645767,265.000000 208.291550,265.000000 197.612610,264.674866 
	C203.638092,262.189697 206.291214,258.905731 206.706696,252.414444 
	C206.865982,249.926071 206.856262,247.411377 206.707870,244.921539 
	C206.127106,235.176895 201.562027,230.875458 191.724045,230.818771 
	C182.228302,230.764069 172.731796,230.765076 163.236069,230.819672 
	C159.308685,230.842239 157.600388,229.227310 157.542343,225.116425 
	C157.478348,220.585114 159.601562,219.366287 163.653427,219.399979 
	C175.980759,219.502533 188.310562,219.344025 200.637054,219.488663 
	C204.199463,219.530457 205.131393,217.728760 204.575165,214.855362 
	C204.098602,212.393509 206.754684,208.073761 201.508148,208.031265 
	C186.516449,207.909805 171.517776,207.815399 156.532135,208.159561 
	C149.763931,208.314987 145.592911,213.063324 145.128815,219.807648 
	C144.991867,221.797775 145.078812,223.804504 145.090866,225.803467 
	C145.159195,237.129181 149.418793,241.465515 160.838791,241.587234 
	C170.167191,241.686691 179.498413,241.684631 188.826492,241.571518 
	C192.649918,241.525162 194.215836,243.066742 194.164291,246.932129 
	C194.088608,252.607559 193.368118,253.502960 187.487503,253.551300 
	C174.005264,253.662125 160.522903,253.760040 146.760864,253.845230 
	C146.339401,253.949081 146.197678,254.070877 145.737549,254.435867 
	C145.279404,258.119354 145.139709,261.559692 145.000000,265.000000 
	C142.629440,265.000000 140.258896,265.000000 137.235107,264.583221 
	C136.631302,262.840881 136.715942,261.515564 136.724182,260.189758 
	C136.766190,253.419647 136.759293,253.424713 129.936874,253.416016 
	C119.479027,253.402664 109.018539,253.520111 98.564171,253.320450 
	C89.951843,253.155960 87.505142,249.863953 89.316605,241.276886 
	C89.729187,241.251236 89.890190,241.201614 90.504395,241.270996 
	C105.287621,241.318893 119.617645,241.247787 134.227234,241.232941 
	C134.671722,241.194534 134.836609,241.099899 135.379303,240.809906 
	C135.757111,237.510971 135.757111,234.407394 135.757111,230.622375 
	C119.981804,230.622375 104.461990,230.622375 89.030571,230.622375 
	C88.216278,222.356400 90.296806,219.631775 97.744728,219.497849 
	C109.386368,219.288483 121.037209,219.278778 132.678314,219.496613 
	C137.727707,219.591080 136.680954,216.296356 136.732895,213.452820 
	C136.783890,210.661469 137.427155,207.801880 132.754593,207.896912 
	C120.116112,208.153900 107.465820,207.828598 94.827278,208.083862 
	C82.671043,208.329391 76.469444,214.662094 76.090843,226.733688 
	C75.944885,231.387405 76.256683,236.059784 76.010727,240.705185 
	C75.418541,251.889999 77.970100,261.140259 90.000000,265.000000 
	C76.979103,265.000000 63.958210,265.000000 50.622692,264.663330 
	C61.053936,261.535736 65.177887,257.037628 66.226158,246.086807 
	C66.731438,240.808304 66.787193,235.441254 66.511795,230.142090 
	C65.693138,214.389954 59.048103,208.140091 43.172081,208.009659 
	C30.694626,207.907135 18.215477,207.946976 5.737714,208.024963 
	C4.156507,208.034851 2.579145,208.659943 1.000001,209.000000 
M287.849243,99.280632 
	C286.642120,95.380829 283.971802,93.091057 279.923523,93.287300 
	C276.481079,93.454155 273.656250,95.082520 272.493408,99.525200 
	C272.561005,101.660500 272.628601,103.795792 272.556885,106.800186 
	C272.254517,110.437180 272.440735,114.319809 276.326080,115.627449 
	C278.810211,116.463493 282.252350,116.251373 284.640961,115.152588 
	C288.247955,113.493324 288.390533,109.651047 288.075439,105.166542 
	C287.988525,103.439224 287.901611,101.711914 287.849243,99.280632 
M435.907654,97.271568 
	C431.731384,91.880623 427.763489,91.744804 422.299316,97.245461 
	C422.067383,100.129578 421.835449,103.013695 421.463348,106.763161 
	C421.230286,110.837051 421.931335,114.896187 426.300781,116.000458 
	C428.790283,116.629608 432.722137,116.111664 434.327667,114.470169 
	C436.142426,112.614754 436.077423,108.920715 436.990234,105.184700 
	C436.725983,102.761589 436.461761,100.338486 435.907654,97.271568 
M387.941315,104.434334 
	C387.634155,102.285713 387.327026,100.137093 386.939850,97.298141 
	C381.519409,89.677719 374.148499,89.373474 368.182068,97.079414 
	C367.917664,99.758743 367.653229,102.438065 367.558136,105.848862 
	C369.313812,110.658340 372.838379,113.102943 377.868683,112.905823 
	C382.877716,112.709534 386.261871,110.079964 387.941315,104.434334 
M323.011200,106.726616 
	C328.137634,115.121063 337.069214,115.234787 342.497101,106.381233 
	C342.370331,103.570877 342.243591,100.760513 342.017395,97.257599 
	C336.249664,89.123085 327.615356,89.464653 322.565277,98.614380 
	C322.682861,101.083458 322.800446,103.552528 323.011200,106.726616 
M291.985382,124.893562 
	C292.030151,128.603226 292.074921,132.312881 292.005768,136.758331 
	C293.576752,144.230957 299.161316,147.629181 306.057922,150.701218 
	C311.623352,153.841888 317.188782,156.982574 323.192230,160.658875 
	C331.368225,165.429337 339.548462,170.192627 347.718445,174.973328 
	C351.707397,177.307465 355.988190,178.103745 360.066406,175.803833 
	C369.599213,170.427856 378.947266,164.724365 389.021667,159.020615 
	C391.714020,157.379120 394.406342,155.737610 397.788574,153.957428 
	C401.946960,151.580307 406.185394,149.330750 410.239777,146.787750 
	C413.815216,144.545166 416.820557,141.728989 417.063965,136.093857 
	C417.030945,131.730331 416.997955,127.366798 417.104126,122.122620 
	C417.108459,120.457108 417.231262,118.781799 417.094452,117.127968 
	C416.715485,112.546585 413.471710,109.661583 409.184235,109.967537 
	C405.117828,110.257721 401.905518,113.844475 402.019073,118.113983 
	C402.063080,119.767944 402.380585,121.414642 402.356018,123.809074 
	C401.548004,127.525108 400.739990,131.241135 399.323303,135.261353 
	C397.848236,136.284592 396.423737,137.391800 394.889404,138.316727 
	C387.882660,142.540436 380.845093,146.713013 373.150482,151.063889 
	C370.309540,152.771301 367.468567,154.478714 363.913269,156.425156 
	C358.067657,160.644592 352.113556,160.892685 345.626129,156.385590 
	C340.526245,153.538956 335.426361,150.692337 329.878571,147.312454 
	C323.078339,143.180923 316.278137,139.049393 309.141785,134.195221 
	C308.406799,130.135254 307.671783,126.075294 307.069855,121.152817 
	C307.082397,120.154854 307.143646,119.154724 307.099304,118.159294 
	C306.872498,113.068077 304.026337,109.938789 299.663391,109.945717 
	C295.204468,109.952797 292.038818,113.447906 291.983368,118.495682 
	C291.963287,120.322487 292.072235,122.150703 291.985382,124.893562 
M367.657410,123.303711 
	C359.661316,123.279663 351.664398,123.179161 343.669403,123.261177 
	C339.109283,123.307968 338.098053,124.976364 339.672668,129.287094 
	C341.992981,135.639206 347.953522,139.396835 355.407349,139.206512 
	C362.300629,139.030518 368.389832,134.787125 370.024719,128.461426 
	C370.391663,127.041649 369.024414,125.173676 367.657410,123.303711 
z"/>
<path fill="#676767" opacity="1.000000" stroke="none" 
	d="
M89.065033,241.252930 
	C87.505142,249.863953 89.951843,253.155960 98.564171,253.320450 
	C109.018539,253.520111 119.479027,253.402664 129.936874,253.416016 
	C136.759293,253.424713 136.766190,253.419647 136.724182,260.189758 
	C136.715942,261.515564 136.631302,262.840881 136.790955,264.583221 
	C121.645775,265.000000 106.291542,265.000000 90.468658,265.000000 
	C77.970100,261.140259 75.418541,251.889999 76.010727,240.705185 
	C76.256683,236.059784 75.944885,231.387405 76.090843,226.733688 
	C76.469444,214.662094 82.671043,208.329391 94.827278,208.083862 
	C107.465820,207.828598 120.116112,208.153900 132.754593,207.896912 
	C137.427155,207.801880 136.783890,210.661469 136.732895,213.452820 
	C136.680954,216.296356 137.727707,219.591080 132.678314,219.496613 
	C121.037209,219.278778 109.386368,219.288483 97.744728,219.497849 
	C90.296806,219.631775 88.216278,222.356400 89.030571,230.622375 
	C104.461990,230.622375 119.981804,230.622375 135.757111,230.622375 
	C135.757111,234.407394 135.757111,237.510971 135.267120,240.640549 
	C134.500626,240.836594 134.224152,241.006638 133.947662,241.176682 
	C119.617645,241.247787 105.287621,241.318893 90.403175,241.086075 
	C89.587509,240.939087 89.326271,241.096008 89.065033,241.252930 
z"/>
<path fill="#686868" opacity="1.000000" stroke="none" 
	d="
M455.468658,265.000000 
	C442.847046,261.298035 440.261475,252.079208 440.880341,240.846237 
	C441.154480,235.870438 440.796783,230.861588 441.019470,225.880859 
	C441.506409,214.989151 447.229584,208.660431 458.031799,208.218460 
	C470.152863,207.722549 482.321106,207.767990 494.447174,208.194473 
	C504.632751,208.552704 510.189423,213.638367 511.168823,223.819382 
	C511.960175,232.045700 511.974121,240.446930 511.306122,248.687347 
	C510.525909,258.312103 506.703156,261.971008 497.164978,264.670776 
	C483.312439,265.000000 469.624878,265.000000 455.468658,265.000000 
M453.220764,240.331039 
	C453.314606,242.319016 453.308411,244.317841 453.522919,246.292709 
	C453.982788,250.526428 456.383789,253.106506 460.655945,253.166397 
	C471.106445,253.312912 481.563843,253.357681 492.011536,253.127640 
	C496.505157,253.028687 498.946716,250.133850 499.043488,245.645447 
	C499.172302,239.669510 499.260010,233.682800 499.045044,227.712250 
	C498.844543,222.142380 496.746857,219.730560 491.085663,219.540649 
	C481.134949,219.206818 471.162964,219.346878 461.203369,219.506088 
	C456.237762,219.585480 453.625824,222.581268 453.359863,227.423889 
	C453.141541,231.399231 453.255066,235.392807 453.220764,240.331039 
z"/>
<path fill="#696969" opacity="1.000000" stroke="none" 
	d="
M145.468658,265.000000 
	C145.139709,261.559692 145.279404,258.119354 145.866333,254.570007 
	C146.555908,254.261703 146.798264,254.062454 147.040619,253.863190 
	C160.522903,253.760040 174.005264,253.662125 187.487503,253.551300 
	C193.368118,253.502960 194.088608,252.607559 194.164291,246.932129 
	C194.215836,243.066742 192.649918,241.525162 188.826492,241.571518 
	C179.498413,241.684631 170.167191,241.686691 160.838791,241.587234 
	C149.418793,241.465515 145.159195,237.129181 145.090866,225.803467 
	C145.078812,223.804504 144.991867,221.797775 145.128815,219.807648 
	C145.592911,213.063324 149.763931,208.314987 156.532135,208.159561 
	C171.517776,207.815399 186.516449,207.909805 201.508148,208.031265 
	C206.754684,208.073761 204.098602,212.393509 204.575165,214.855362 
	C205.131393,217.728760 204.199463,219.530457 200.637054,219.488663 
	C188.310562,219.344025 175.980759,219.502533 163.653427,219.399979 
	C159.601562,219.366287 157.478348,220.585114 157.542343,225.116425 
	C157.600388,229.227310 159.308685,230.842239 163.236069,230.819672 
	C172.731796,230.765076 182.228302,230.764069 191.724045,230.818771 
	C201.562027,230.875458 206.127106,235.176895 206.707870,244.921539 
	C206.856262,247.411377 206.865982,249.926071 206.706696,252.414444 
	C206.291214,258.905731 203.638092,262.189697 197.143951,264.674866 
	C179.979111,265.000000 162.958206,265.000000 145.468658,265.000000 
z"/>
<path fill="#676767" opacity="1.000000" stroke="none" 
	d="
M273.964508,241.108536 
	C260.507721,241.219452 247.050934,241.331970 233.594116,241.439301 
	C231.810837,241.453522 230.027359,241.441269 228.315842,241.441269 
	C227.238815,250.393036 229.321243,253.210861 237.628616,253.415756 
	C249.429138,253.706802 261.240295,253.566162 273.571411,253.910492 
	C274.385712,254.185532 274.675446,254.160034 274.965210,254.134521 
	C275.254059,257.459076 275.542877,260.783630 275.915863,264.554077 
	C260.645782,265.000000 245.291550,265.000000 229.468658,265.000000 
	C228.048019,264.447754 227.153305,263.736603 226.134644,263.369446 
	C220.212219,261.234741 216.536102,256.921356 216.124481,250.850571 
	C215.518921,241.919174 215.175842,232.881699 215.851746,223.975204 
	C216.609665,213.987732 222.060776,208.708740 231.997360,208.283127 
	C245.621338,207.699585 259.285461,207.978226 272.930267,208.108841 
	C273.949921,208.118591 275.638031,209.785355 275.825165,210.884491 
	C276.258911,213.431747 275.963165,216.103210 275.963165,219.425659 
	C270.606293,219.425659 265.821167,219.420776 261.036072,219.426743 
	C252.880920,219.436935 244.719391,219.259201 236.572556,219.526474 
	C229.376709,219.762558 227.196579,222.874863 228.417114,230.813080 
	C241.288742,230.813080 254.238754,230.746841 267.187683,230.836380 
	C275.814880,230.896027 275.527191,229.186035 274.957336,239.667328 
	C274.370880,240.520828 274.167694,240.814682 273.964508,241.108536 
z"/>
<path fill="#676767" opacity="1.000000" stroke="none" 
	d="
M1.000001,209.468658 
	C2.579145,208.659943 4.156507,208.034851 5.737714,208.024963 
	C18.215477,207.946976 30.694626,207.907135 43.172081,208.009659 
	C59.048103,208.140091 65.693138,214.389954 66.511795,230.142090 
	C66.787193,235.441254 66.731438,240.808304 66.226158,246.086807 
	C65.177887,257.037628 61.053936,261.535736 50.154034,264.663330 
	C33.735020,265.000000 17.470037,265.000000 1.000000,265.000000 
	C1.000000,246.646286 1.000000,228.291794 1.000001,209.468658 
M16.061670,253.570312 
	C25.699604,253.444397 35.348831,253.558029 44.971317,253.104431 
	C50.922199,252.823914 53.560295,249.833954 53.951004,243.841690 
	C54.220951,239.701599 54.153469,235.530411 54.056473,231.377335 
	C53.848457,222.470718 50.910370,219.499756 41.879658,219.329956 
	C33.735001,219.176788 25.583738,219.383484 17.438553,219.245148 
	C14.573638,219.196518 13.198492,219.861099 13.259603,223.089005 
	C13.429530,232.064667 13.250586,241.046799 13.400227,250.023178 
	C13.419845,251.200012 14.554254,252.358261 16.061670,253.570312 
z"/>
<path fill="#676767" opacity="1.000000" stroke="none" 
	d="
M662.468628,265.000000 
	C661.045105,264.450226 660.146667,263.742950 659.125916,263.376801 
	C653.412537,261.327271 649.549988,257.241302 649.193176,251.367126 
	C648.600403,241.607986 648.533142,231.763397 649.104248,222.005096 
	C649.515869,214.970917 654.174622,209.541092 661.060242,209.174179 
	C676.740173,208.338638 692.487915,208.773026 708.604004,208.845673 
	C709.000000,212.030594 709.000000,215.061188 708.533264,218.597595 
	C695.584351,219.156769 683.100708,219.112137 670.620544,219.298355 
	C662.459595,219.420120 659.746033,222.882629 661.427429,230.860641 
	C665.493958,230.860641 669.632263,230.819138 673.769470,230.868637 
	C684.891663,231.001709 696.013428,231.173660 707.097412,231.831329 
	C707.036743,235.241760 707.013916,238.151001 706.537720,241.190369 
	C691.036865,241.320465 675.989380,241.320465 660.999146,241.320465 
	C660.425842,250.748749 662.331543,253.032364 670.598022,253.534348 
	C672.585754,253.655045 674.584229,253.601303 676.577881,253.619461 
	C686.705750,253.711578 696.833557,253.800949 707.087402,254.138214 
	C707.521057,254.578842 707.828735,254.772537 708.353394,254.945953 
	C708.570435,254.925674 709.000000,255.000000 709.000000,255.000000 
	C709.000000,258.307526 709.000000,261.615082 709.000000,265.000000 
	C693.645874,265.000000 678.291565,265.000000 662.468628,265.000000 
z"/>
<path fill="#686868" opacity="1.000000" stroke="none" 
	d="
M285.871399,213.001297 
	C286.675568,211.628738 287.157745,209.798996 288.341461,208.965317 
	C292.716919,205.883667 306.141968,208.204727 309.394409,212.491241 
	C318.744720,224.814316 328.014191,237.198700 337.349304,249.533386 
	C338.357117,250.865097 339.586456,252.029175 340.713013,253.271011 
	C341.140411,253.096512 341.567780,252.922012 341.995178,252.747513 
	C341.995178,247.015930 341.995148,241.284363 341.995178,235.552780 
	C341.995209,227.898956 342.199066,220.237442 341.909973,212.594559 
	C341.763855,208.732178 343.145050,207.434280 346.775055,207.960037 
	C347.589874,208.078064 348.453979,208.087433 349.265350,207.958221 
	C353.199127,207.331848 354.415100,208.873215 354.349243,212.883652 
	C354.114349,227.189148 354.418518,241.504318 354.111694,255.807098 
	C354.050690,258.650452 352.192017,261.455200 351.081146,264.638885 
	C345.645081,265.000000 340.290131,265.000000 334.374817,264.675354 
	C322.299988,249.412415 310.785553,234.474106 299.271118,219.535812 
	C298.847412,219.791962 298.423706,220.048111 298.000000,220.304260 
	C298.000000,235.202835 298.000000,250.101425 298.000000,265.000000 
	C294.638702,265.000000 291.277435,265.000000 287.411865,264.533020 
	C286.887085,248.777969 286.897400,233.489731 286.803467,218.202103 
	C286.792786,216.466660 286.196289,214.734818 285.871399,213.001297 
z"/>
<path fill="#696969" opacity="1.000000" stroke="none" 
	d="
M601.460632,265.000000 
	C599.047729,262.608002 596.698914,260.438904 595.208557,257.787262 
	C586.569275,242.415985 578.128479,226.933136 569.636780,211.479095 
	C569.176697,210.641800 568.863525,209.723755 568.107239,207.978531 
	C572.447571,207.978531 576.213562,207.669388 579.879944,208.138519 
	C581.247925,208.313553 582.782471,210.086060 583.562500,211.503571 
	C590.459717,224.036621 597.199646,236.656189 604.000366,249.242447 
	C604.757446,250.643677 605.604065,251.996490 606.947021,254.290359 
	C608.403625,252.012039 609.423645,250.621017 610.233887,249.117020 
	C616.545471,237.400558 623.014221,225.761841 628.997559,213.879166 
	C631.209229,209.487045 633.657288,206.963242 638.843506,207.913345 
	C640.874023,208.285355 643.029663,207.974228 645.819092,207.974228 
	C644.899475,210.011322 644.387878,211.366562 643.703064,212.627792 
	C635.606689,227.539368 627.568604,242.483887 619.291321,257.294647 
	C617.807922,259.948944 615.308716,262.035522 613.139282,264.692108 
	C609.307068,265.000000 605.614197,265.000000 601.460632,265.000000 
z"/>
<path fill="#696969" opacity="1.000000" stroke="none" 
	d="
M394.460632,265.000000 
	C392.110474,262.973999 389.732697,261.223267 388.410278,258.877533 
	C379.505646,243.082718 370.819580,227.164597 362.086670,211.273254 
	C361.637115,210.455215 361.406738,209.516739 360.828369,207.981506 
	C364.973602,207.981506 368.630707,207.619751 372.153107,208.150909 
	C373.664856,208.378891 375.341980,210.215851 376.185669,211.741196 
	C383.029297,224.114029 389.685059,236.590698 396.421326,249.023071 
	C397.247406,250.547714 398.210815,251.997940 399.637329,254.351776 
	C401.088135,251.954803 402.061859,250.494431 402.889313,248.955429 
	C409.270386,237.087387 415.817078,225.301819 421.878662,213.272110 
	C423.981201,209.099426 426.517273,207.273972 431.103516,207.923355 
	C433.211304,208.221832 435.396393,207.974197 438.317719,207.974197 
	C437.507141,209.814575 437.029053,211.146729 436.362244,212.376541 
	C428.274261,227.292648 420.234924,242.236237 411.979706,257.059479 
	C410.486755,259.740234 408.077972,261.910889 406.045990,264.658508 
	C402.307098,265.000000 398.614166,265.000000 394.460632,265.000000 
z"/>
<path fill="#696969" opacity="1.000000" stroke="none" 
	d="
M578.988586,254.039810 
	C579.274719,257.394684 579.560913,260.749542 579.923584,264.552185 
	C565.645752,265.000000 551.291565,265.000000 536.468628,265.000000 
	C524.119568,261.403442 521.368652,252.519592 521.804749,241.354813 
	C522.181519,231.707825 522.026672,222.031204 521.807922,212.374466 
	C521.726929,208.804047 522.945190,207.472931 526.386963,207.961487 
	C527.040100,208.054199 527.731140,208.061340 528.381897,207.960464 
	C532.801025,207.275513 534.520447,208.747055 534.316650,213.570908 
	C533.916199,223.049011 534.127136,232.556946 534.227783,242.051025 
	C534.323242,251.049545 536.593445,253.303391 545.513489,253.374344 
	C556.007202,253.457825 566.501831,253.427017 577.524658,253.776810 
	C578.365112,254.085159 578.676819,254.062485 578.988586,254.039810 
z"/>
<path fill="#FEFEFE" opacity="1.000000" stroke="none" 
	d="
M298.468658,265.000000 
	C298.000000,250.101425 298.000000,235.202835 298.000000,220.304260 
	C298.423706,220.048111 298.847412,219.791962 299.271118,219.535812 
	C310.785553,234.474106 322.299988,249.412415 333.907227,264.675354 
	C322.312439,265.000000 310.624878,265.000000 298.468658,265.000000 
z"/>
<path fill="#F4F4F4" opacity="1.000000" stroke="none" 
	d="
M709.000000,254.535355 
	C709.000000,255.000000 708.570435,254.925674 708.253845,254.662506 
	C707.612000,254.229980 707.286682,254.060638 706.961426,253.891296 
	C696.833557,253.800949 686.705750,253.711578 676.577881,253.619461 
	C674.584229,253.601303 672.585754,253.655045 670.598022,253.534348 
	C662.331543,253.032364 660.425842,250.748749 660.999146,241.320465 
	C675.989380,241.320465 691.036865,241.320465 706.873291,241.210144 
	C708.108154,241.066544 708.554077,241.033279 709.000000,241.000000 
	C709.000000,245.356903 709.000000,249.713806 709.000000,254.535355 
z"/>
<path fill="#F4F4F4" opacity="1.000000" stroke="none" 
	d="
M707.135315,231.330170 
	C696.013428,231.173660 684.891663,231.001709 673.769470,230.868637 
	C669.632263,230.819138 665.493958,230.860641 661.427429,230.860641 
	C659.746033,222.882629 662.459595,219.420120 670.620544,219.298355 
	C683.100708,219.112137 695.584351,219.156769 708.533264,219.051697 
	C709.000000,223.356903 709.000000,227.713806 708.687134,232.421875 
	C707.961304,232.292099 707.548279,231.811142 707.135315,231.330170 
z"/>
<path fill="#FF2A6F" opacity="1.000000" stroke="none" 
	d="
M358.550018,1.000000 
	C360.913269,2.701519 363.137299,4.161878 364.680573,6.150525 
	C369.016632,11.737990 367.617188,20.375051 361.441376,23.768078 
	C358.435913,25.419289 357.676727,27.241106 357.525574,30.581898 
	C355.080231,30.998215 353.111328,31.002123 351.142395,31.006033 
	C351.371979,27.480637 350.177185,25.230627 346.985718,22.954399 
	C339.260529,17.444580 340.901123,7.562994 350.003662,1.354449 
	C352.700012,1.000000 355.400024,1.000000 358.550018,1.000000 
z"/>
<path fill="#7D9D88" opacity="1.000000" stroke="none" 
	d="
M285.648621,213.344421 
	C286.196289,214.734818 286.792786,216.466660 286.803467,218.202103 
	C286.897400,233.489731 286.887085,248.777969 286.953796,264.533020 
	C286.555542,265.000000 286.111115,265.000000 285.333313,265.000000 
	C285.047119,249.715561 285.085358,234.431076 285.153198,219.146729 
	C285.161285,217.326630 285.331055,215.507263 285.648621,213.344421 
z"/>
<path fill="#595959" opacity="1.000000" stroke="none" 
	d="
M707.097412,231.831329 
	C707.548279,231.811142 707.961304,232.292099 708.687134,232.886536 
	C709.000000,235.370560 709.000000,237.741104 709.000000,240.555847 
	C708.554077,241.033279 708.108154,241.066544 707.326660,241.080032 
	C707.013916,238.151001 707.036743,235.241760 707.097412,231.831329 
z"/>
<path fill="#FB8D08" opacity="1.000000" stroke="none" 
	d="
M351.088562,31.420969 
	C353.111328,31.002123 355.080231,30.998215 357.471436,30.999928 
	C357.893707,32.819016 357.893707,34.632484 357.893707,36.152573 
	C368.603699,42.315601 378.927094,48.256168 389.037689,54.553131 
	C386.554169,55.269390 384.291168,55.869877 382.011261,55.942680 
	C375.877686,56.138557 369.736877,56.109135 363.598938,56.169147 
	C359.325653,54.044151 355.064301,51.841129 349.334534,53.984417 
	C346.783936,53.580902 345.027649,53.172543 343.251556,53.048893 
	C337.029999,52.615768 330.801636,52.280781 324.575836,51.908520 
	C331.963226,47.543686 339.158722,42.792259 346.823853,38.986862 
	C350.341949,37.240295 351.496979,35.328434 351.088562,31.420969 
z"/>
<path fill="#9C44FF" opacity="1.000000" stroke="none" 
	d="
M346.043915,156.913452 
	C352.113556,160.892685 358.067657,160.644592 364.455383,156.737900 
	C366.719360,157.699326 368.419189,158.829178 370.167175,158.909470 
	C376.225800,159.187775 382.301147,159.101212 388.370148,159.153473 
	C378.947266,164.724365 369.599213,170.427856 360.066406,175.803833 
	C355.988190,178.103745 351.707397,177.307465 347.718445,174.973328 
	C339.548462,170.192627 331.368225,165.429337 323.375000,160.213898 
	C328.959534,159.511566 334.376740,159.418594 339.755554,158.915665 
	C341.895386,158.715591 343.950317,157.607925 346.043915,156.913452 
z"/>
<path fill="#6666FF" opacity="1.000000" stroke="none" 
	d="
M416.883759,137.011765 
	C416.820557,141.728989 413.815216,144.545166 410.239777,146.787750 
	C406.185394,149.330750 401.946960,151.580307 397.202698,153.710114 
	C394.248535,152.969711 391.901245,152.259384 389.507660,152.028107 
	C384.290466,151.524002 379.049713,151.263809 373.818573,150.903961 
	C380.845093,146.713013 387.882660,142.540436 394.889404,138.316727 
	C396.423737,137.391800 397.848236,136.284592 399.870544,135.417267 
	C405.906433,136.052704 411.395111,136.532227 416.883759,137.011765 
z"/>
<path fill="#3C80FF" opacity="1.000000" stroke="none" 
	d="
M368.056488,123.407867 
	C369.024414,125.173676 370.391663,127.041649 370.024719,128.461426 
	C368.389832,134.787125 362.300629,139.030518 355.407349,139.206512 
	C347.953522,139.396835 341.992981,135.639206 339.672668,129.287094 
	C338.098053,124.976364 339.109283,123.307968 343.669403,123.261177 
	C351.664398,123.179161 359.661316,123.279663 368.056488,123.407867 
z"/>
<path fill="#AE9653" opacity="1.000000" stroke="none" 
	d="
M292.430695,77.905762 
	C292.130127,71.996605 295.348907,68.322319 300.192413,65.677330 
	C301.794312,64.802544 303.391724,63.919525 305.738861,63.133198 
	C309.238403,63.488091 311.987640,63.782192 314.742645,64.005142 
	C319.948029,64.426392 325.156708,64.806732 330.364014,65.204063 
	C323.511261,69.419693 316.658478,73.635315 309.002869,77.929123 
	C302.943604,77.973465 297.687134,77.939613 292.430695,77.905762 
z"/>
<path fill="#6666FF" opacity="1.000000" stroke="none" 
	d="
M309.477905,134.917862 
	C316.278137,139.049393 323.078339,143.180923 329.693634,147.758224 
	C327.086426,148.472244 324.669403,148.808487 322.240845,148.994995 
	C316.698700,149.420578 311.150879,149.772842 305.605377,150.154892 
	C299.161316,147.629181 293.576752,144.230957 292.469788,136.334442 
	C298.448517,135.579666 303.963196,135.248764 309.477905,134.917862 
z"/>
<path fill="#DE9325" opacity="1.000000" stroke="none" 
	d="
M330.691650,65.111740 
	C325.156708,64.806732 319.948029,64.426392 314.742645,64.005142 
	C311.987640,63.782192 309.238403,63.488091 306.071533,63.062969 
	C311.745544,59.272976 317.834625,55.646122 324.249756,51.963898 
	C330.801636,52.280781 337.029999,52.615768 343.251556,53.048893 
	C345.027649,53.172543 346.783936,53.580902 348.955963,54.048393 
	C343.248199,57.831860 337.133728,61.425644 330.691650,65.111740 
z"/>
<path fill="#8951FF" opacity="1.000000" stroke="none" 
	d="
M305.831665,150.428055 
	C311.150879,149.772842 316.698700,149.420578 322.240845,148.994995 
	C324.669403,148.808487 327.086426,148.472244 329.917603,148.024857 
	C335.426361,150.692337 340.526245,153.538956 345.835022,156.649521 
	C343.950317,157.607925 341.895386,158.715591 339.755554,158.915665 
	C334.376740,159.418594 328.959534,159.511566 323.155975,159.946075 
	C317.188782,156.982574 311.623352,153.841888 305.831665,150.428055 
z"/>
<path fill="#AE9653" opacity="1.000000" stroke="none" 
	d="
M397.816437,76.120201 
	C392.265625,72.975449 386.714813,69.830688 381.357605,66.225075 
	C390.119537,65.480598 398.687836,65.196991 407.256165,64.913376 
	C412.225983,66.734726 415.820068,69.839493 416.438354,75.639648 
	C409.910309,76.045197 403.863373,76.082695 397.816437,76.120201 
z"/>
<path fill="#DE9325" opacity="1.000000" stroke="none" 
	d="
M407.027710,64.651489 
	C398.687836,65.196991 390.119537,65.480598 381.150909,65.946381 
	C375.176422,62.996094 369.602264,59.863628 363.813538,56.450157 
	C369.736877,56.109135 375.877686,56.138557 382.011261,55.942680 
	C384.291168,55.869877 386.554169,55.269390 389.295471,54.814575 
	C395.443787,57.942947 401.121521,61.166275 407.027710,64.651489 
z"/>
<path fill="#3C80FF" opacity="1.000000" stroke="none" 
	d="
M416.973877,136.552811 
	C411.395111,136.532227 405.906433,136.052704 400.174866,135.265167 
	C400.739990,131.241135 401.548004,127.525108 402.967834,123.424866 
	C408.041412,123.028198 412.503174,123.015739 416.964935,123.003273 
	C416.997955,127.366798 417.030945,131.730331 416.973877,136.552811 
z"/>
<path fill="#7D9D88" opacity="1.000000" stroke="none" 
	d="
M398.006714,76.416641 
	C403.863373,76.082695 409.910309,76.045197 416.416473,76.005341 
	C416.954132,80.034996 417.032562,84.067001 416.577515,88.554367 
	C411.531372,89.013847 407.018707,89.017975 402.506042,89.022110 
	C402.046661,84.577080 402.315674,79.877060 398.006714,76.416641 
z"/>
<path fill="#8951FF" opacity="1.000000" stroke="none" 
	d="
M373.484528,150.983917 
	C379.049713,151.263809 384.290466,151.524002 389.507660,152.028107 
	C391.901245,152.259384 394.248535,152.969711 396.857727,153.779449 
	C394.406342,155.737610 391.714020,157.379120 388.695923,159.087036 
	C382.301147,159.101212 376.225800,159.187775 370.167175,158.909470 
	C368.419189,158.829178 366.719360,157.699326 364.812561,156.618393 
	C367.468567,154.478714 370.309540,152.771301 373.484528,150.983917 
z"/>
<path fill="#3C80FF" opacity="1.000000" stroke="none" 
	d="
M309.309845,134.556549 
	C303.963196,135.248764 298.448517,135.579666 292.526733,135.966553 
	C292.074921,132.312881 292.030151,128.603226 292.414429,124.403336 
	C297.541260,123.280510 302.239014,122.647926 306.936768,122.015335 
	C307.671783,126.075294 308.406799,130.135254 309.309845,134.556549 
z"/>
<path fill="#10A7F9" opacity="1.000000" stroke="none" 
	d="
M417.034546,122.562943 
	C412.503174,123.015739 408.041412,123.028198 403.076538,123.052658 
	C402.380585,121.414642 402.063080,119.767944 402.019073,118.113983 
	C401.905518,113.844475 405.117828,110.257721 409.184235,109.967537 
	C413.471710,109.661583 416.715485,112.546585 417.094452,117.127968 
	C417.231262,118.781799 417.108459,120.457108 417.034546,122.562943 
z"/>
<path fill="#39A3CB" opacity="1.000000" stroke="none" 
	d="
M342.116821,97.950157 
	C342.243591,100.760513 342.370331,103.570877 341.852905,106.505478 
	C335.111816,106.427017 329.014923,106.224312 322.918060,106.021606 
	C322.800446,103.552528 322.682861,101.083458 323.266296,98.307266 
	C330.017120,97.983498 336.066986,97.966827 342.116821,97.950157 
z"/>
<path fill="#10A7F9" opacity="1.000000" stroke="none" 
	d="
M307.003296,121.584076 
	C302.239014,122.647926 297.541260,123.280510 292.482910,123.945694 
	C292.072235,122.150703 291.963287,120.322487 291.983368,118.495682 
	C292.038818,113.447906 295.204468,109.952797 299.663391,109.945717 
	C304.026337,109.938789 306.872498,113.068077 307.099304,118.159294 
	C307.143646,119.154724 307.082397,120.154854 307.003296,121.584076 
z"/>
<path fill="#10A7F9" opacity="1.000000" stroke="none" 
	d="
M436.829865,106.026237 
	C436.077423,108.920715 436.142426,112.614754 434.327667,114.470169 
	C432.722137,116.111664 428.790283,116.629608 426.300781,116.000458 
	C421.931335,114.896187 421.230286,110.837051 421.985840,106.352089 
	C427.282196,105.969421 432.056030,105.997826 436.829865,106.026237 
z"/>
<path fill="#10A7F9" opacity="1.000000" stroke="none" 
	d="
M287.908691,106.019073 
	C288.390533,109.651047 288.247955,113.493324 284.640961,115.152588 
	C282.252350,116.251373 278.810211,116.463493 276.326080,115.627449 
	C272.440735,114.319809 272.254517,110.437180 273.064148,106.376724 
	C278.350494,105.975197 283.129578,105.997131 287.908691,106.019073 
z"/>
<path fill="#39A3CB" opacity="1.000000" stroke="none" 
	d="
M367.388824,105.117393 
	C367.653229,102.438065 367.917664,99.758743 368.727356,97.177124 
	C375.188416,97.512711 381.104156,97.750595 387.019897,97.988480 
	C387.327026,100.137093 387.634155,102.285713 387.266113,104.743439 
	C380.190247,105.074150 373.789520,105.095772 367.388824,105.117393 
z"/>
<path fill="#4DA2B9" opacity="1.000000" stroke="none" 
	d="
M306.926910,87.091415 
	C306.960968,90.108681 306.995056,93.125954 306.468628,96.578812 
	C301.504211,96.706177 297.100281,96.397949 292.696289,96.089722 
	C292.547699,93.372437 292.399078,90.655159 292.768005,87.500252 
	C297.832703,87.072220 302.379791,87.081818 306.926910,87.091415 
z"/>
<path fill="#7D9D88" opacity="1.000000" stroke="none" 
	d="
M307.000977,86.698097 
	C302.379791,87.081818 297.832703,87.072220 292.850769,87.081635 
	C292.352448,84.337173 292.288940,81.573700 292.328064,78.357986 
	C297.687134,77.939613 302.943604,77.973465 308.679016,78.025856 
	C308.463684,80.797859 307.769348,83.551323 307.000977,86.698097 
z"/>
<path fill="#10A7F9" opacity="1.000000" stroke="none" 
	d="
M367.473480,105.483124 
	C373.789520,105.095772 380.190247,105.074150 387.106018,105.083710 
	C386.261871,110.079964 382.877716,112.709534 377.868683,112.905823 
	C372.838379,113.102943 369.313812,110.658340 367.473480,105.483124 
z"/>
<path fill="#39A3CB" opacity="1.000000" stroke="none" 
	d="
M436.910034,105.605469 
	C432.056030,105.997826 427.282196,105.969421 422.055939,105.919418 
	C421.835449,103.013695 422.067383,100.129578 422.885803,97.358093 
	C427.714020,97.618950 431.955780,97.767166 436.197540,97.915375 
	C436.461761,100.338486 436.725983,102.761589 436.910034,105.605469 
z"/>
<path fill="#4DA2B9" opacity="1.000000" stroke="none" 
	d="
M402.406860,89.417770 
	C407.018707,89.017975 411.531372,89.013847 416.506287,89.014404 
	C417.000793,91.398033 417.033051,93.776970 416.502686,96.584473 
	C411.512268,96.708481 407.084534,96.403931 402.656738,96.099380 
	C402.540405,94.004066 402.424042,91.908745 402.406860,89.417770 
z"/>
<path fill="#10A7F9" opacity="1.000000" stroke="none" 
	d="
M322.964630,106.374115 
	C329.014923,106.224312 335.111816,106.427017 341.588074,106.798851 
	C337.069214,115.234787 328.137634,115.121063 322.964630,106.374115 
z"/>
<path fill="#4DA2B9" opacity="1.000000" stroke="none" 
	d="
M342.067108,97.603882 
	C336.066986,97.966827 330.017120,97.983498 323.501587,98.004333 
	C327.615356,89.464653 336.249664,89.123085 342.067108,97.603882 
z"/>
<path fill="#4DA2B9" opacity="1.000000" stroke="none" 
	d="
M386.979858,97.643311 
	C381.104156,97.750595 375.188416,97.512711 368.997925,96.910522 
	C374.148499,89.373474 381.519409,89.677719 386.979858,97.643311 
z"/>
<path fill="#39A3CB" opacity="1.000000" stroke="none" 
	d="
M287.992065,105.592804 
	C283.129578,105.997131 278.350494,105.975197 273.133789,105.942169 
	C272.628601,103.795792 272.561005,101.660500 273.078827,99.392380 
	C278.381073,99.501236 283.097870,99.742920 287.814697,99.984596 
	C287.901611,101.711914 287.988525,103.439224 287.992065,105.592804 
z"/>
<path fill="#4DA2B9" opacity="1.000000" stroke="none" 
	d="
M287.831970,99.632614 
	C283.097870,99.742920 278.381073,99.501236 273.273468,99.091278 
	C273.656250,95.082520 276.481079,93.454155 279.923523,93.287300 
	C283.971802,93.091057 286.642120,95.380829 287.831970,99.632614 
z"/>
<path fill="#39A3CB" opacity="1.000000" stroke="none" 
	d="
M402.651154,96.483086 
	C407.084534,96.403931 411.512268,96.708481 416.390778,97.017960 
	C416.178894,101.064583 413.575195,102.991325 409.703857,103.015800 
	C405.711914,103.041039 403.372711,100.784271 402.651154,96.483086 
z"/>
<path fill="#39A3CB" opacity="1.000000" stroke="none" 
	d="
M292.680603,96.475449 
	C297.100281,96.397949 301.504211,96.706177 306.356262,97.020035 
	C306.046509,100.977127 303.517029,103.019714 299.633545,103.013992 
	C295.690399,103.008186 293.245026,100.886696 292.680603,96.475449 
z"/>
<path fill="#4DA2B9" opacity="1.000000" stroke="none" 
	d="
M436.052612,97.593475 
	C431.955780,97.767166 427.714020,97.618950 423.192383,97.148743 
	C427.763489,91.744804 431.731384,91.880623 436.052612,97.593475 
z"/>
<path fill="#595959" opacity="1.000000" stroke="none" 
	d="
M89.316605,241.276886 
	C89.326271,241.096008 89.587509,240.939087 89.949966,240.967072 
	C89.890190,241.201614 89.729187,241.251236 89.316605,241.276886 
z"/>
<path fill="#595959" opacity="1.000000" stroke="none" 
	d="
M134.227234,241.232941 
	C134.224152,241.006638 134.500626,240.836594 134.889313,240.835907 
	C134.836609,241.099899 134.671722,241.194534 134.227234,241.232941 
z"/>
<path fill="#595959" opacity="1.000000" stroke="none" 
	d="
M274.275024,241.083664 
	C274.167694,240.814682 274.370880,240.520828 274.815796,240.103821 
	C274.900208,240.340027 274.742859,240.699417 274.275024,241.083664 
z"/>
<path fill="#595959" opacity="1.000000" stroke="none" 
	d="
M146.760864,253.845245 
	C146.798264,254.062454 146.555908,254.261703 146.184753,254.326813 
	C146.197678,254.070877 146.339401,253.949081 146.760864,253.845245 
z"/>
<path fill="#595959" opacity="1.000000" stroke="none" 
	d="
M274.741272,253.960815 
	C274.675446,254.160034 274.385712,254.185532 274.024872,254.029877 
	C274.141602,253.828201 274.329437,253.807663 274.741272,253.960815 
z"/>
<path fill="#595959" opacity="1.000000" stroke="none" 
	d="
M578.749756,253.839783 
	C578.676819,254.062485 578.365112,254.085159 577.972290,253.905960 
	C578.097839,253.682632 578.304382,253.661179 578.749756,253.839783 
z"/>
<path fill="#FBFBFB" opacity="1.000000" stroke="none" 
	d="
M453.221130,239.854675 
	C453.255066,235.392807 453.141541,231.399231 453.359863,227.423889 
	C453.625824,222.581268 456.237762,219.585480 461.203369,219.506088 
	C471.162964,219.346878 481.134949,219.206818 491.085663,219.540649 
	C496.746857,219.730560 498.844543,222.142380 499.045044,227.712250 
	C499.260010,233.682800 499.172302,239.669510 499.043488,245.645447 
	C498.946716,250.133850 496.505157,253.028687 492.011536,253.127640 
	C481.563843,253.357681 471.106445,253.312912 460.655945,253.166397 
	C456.383789,253.106506 453.982788,250.526428 453.522919,246.292709 
	C453.308411,244.317841 453.314606,242.319016 453.221130,239.854675 
z"/>
<path fill="#FBFBFB" opacity="1.000000" stroke="none" 
	d="
M15.617002,253.547714 
	C14.554254,252.358261 13.419845,251.200012 13.400227,250.023178 
	C13.250586,241.046799 13.429530,232.064667 13.259603,223.089005 
	C13.198492,219.861099 14.573638,219.196518 17.438553,219.245148 
	C25.583738,219.383484 33.735001,219.176788 41.879658,219.329956 
	C50.910370,219.499756 53.848457,222.470718 54.056473,231.377335 
	C54.153469,235.530411 54.220951,239.701599 53.951004,243.841690 
	C53.560295,249.833954 50.922199,252.823914 44.971317,253.104431 
	C35.348831,253.558029 25.699604,253.444397 15.617002,253.547714 
z"/>
<path fill="#595959" opacity="1.000000" stroke="none" 
	d="
M707.087402,254.138214 
	C707.286682,254.060638 707.612000,254.229980 708.036804,254.682785 
	C707.828735,254.772537 707.521057,254.578842 707.087402,254.138214 
z"/>
</svg>